<svg class="icon" viewBox="0 0 1025 1024" xmlns="http://www.w3.org/2000/svg" width="32.031" height="32"><path d="M211.595 856.81c0 14.603 12.914 26.425 28.809 26.425h557c15.895 0 28.81-11.822 28.81-26.425 0-14.603-12.915-26.424-28.81-26.424h-557c-15.895 0-28.81 11.821-28.81 26.424zm710.581-748.33H787.77v1.788c-11.126 3.675-19.173 13.212-19.173 24.636s8.047 20.961 19.173 24.637v1.788h96.062c42.418 0 76.79 31.49 76.79 70.432v669.057c0 38.941-34.372 70.432-76.79 70.432H134.805c-42.419 0-76.79-31.49-76.79-70.432V231.761c0-38.941 34.371-70.432 76.79-70.432h96.062v-1.788c3.08.993 6.159 1.788 9.636 1.788 15.894 0 28.809-11.822 28.809-26.425s-12.915-26.424-28.81-26.424c-3.377 0-6.556.794-9.635 1.788v-1.788H96.36c-53.048 0-96.062 39.438-96.062 88.015v739.49C.298 984.561 43.312 1024 96.36 1024h825.816c53.048 0 96.062-39.438 96.062-88.016v-739.39c0-48.676-43.014-88.114-96.062-88.114z"/><path d="M683.064 576.075L542.1 705.316V277.855c0-14.603-12.914-26.425-28.809-26.425s-28.808 11.822-28.808 26.425v427.461L343.519 576.075c-11.226-10.332-29.504-10.332-40.73 0s-11.225 27.02 0 37.351L492.927 787.77c11.225 10.331 29.504 10.331 40.73 0l190.137-174.343c11.225-10.33 11.225-27.02 0-37.351-11.325-10.332-29.505-10.332-40.73 0z"/></svg>