<?xml version="1.0" standalone="no"?><!DOCTYPE svg PUBLIC "-//W3C//DTD SVG 1.1//EN" "http://www.w3.org/Graphics/SVG/1.1/DTD/svg11.dtd"><svg t="1584601342184" class="icon" viewBox="0 0 1024 1024" version="1.1" xmlns="http://www.w3.org/2000/svg" p-id="4855" xmlns:xlink="http://www.w3.org/1999/xlink" width="200" height="200"><defs><style type="text/css"></style></defs><path d="M876.578687 700.251235l-16.62103-28.90614c0-0.722653-0.722653-0.722653-0.722653-1.445307-28.183486-40.468596-46.249824-84.550459-57.089626-134.413549-1.445307-5.781228-2.16796-12.285109-3.613268-18.066338-2.16796-13.730416-15.175723-23.124912-28.90614-20.956951-13.730416 2.16796-23.124912 15.175723-20.956951 28.90614 1.445307 7.226535 2.16796 13.730416 3.613268 20.234297 12.285109 56.366972 33.242061 105.50741 64.31616 151.757234l16.621031 28.90614c0 0.722653 0.722653 0.722653 0.722653 1.445307 5.058574 7.949188 7.949188 17.343684 7.949189 26.738179 0 26.738179-21.679605 48.417784-48.417784 48.417784h-558.611151c-26.738179 0-48.417784-21.679605-48.417784-48.417784 0-9.394495 2.890614-18.788991 7.949189-26.738179 0-0.722653 0.722653-0.722653 0.722653-1.445307l16.621031-28.90614c46.249824-67.929428 71.542696-148.86662 75.155963-239.198306 5.058574-138.749471 57.089626-223.299929 148.143966-237.030346 12.285109-2.16796 21.679605-12.285109 21.679605-25.292872 0-32.519407 26.015526-58.534933 58.534933-58.534933s58.534933 26.015526 58.534933 58.534933c0 7.226535 3.613267 15.175723 9.394495 19.511644 10.839802 8.671842 26.738179 7.226535 35.410021-3.613267 4.335921-5.058574 5.781228-10.839802 5.781228-17.343684-0.722653-59.98024-49.140438-107.675371-109.120677-107.675371-52.753705 0-97.558222 37.577982-106.952717 88.163726-104.062103 26.015526-166.210303 127.187015-171.268878 281.112209-2.890614 80.937191-25.292872 153.202541-66.484122 213.182781 0 0.722653-0.722653 0.722653-0.722653 1.445307l-16.62103 28.90614c-10.117149 15.898377-15.898377 34.687368-15.898377 53.476358 0 54.199012 44.081863 99.003529 99.003528 99.003529h185.721948c3.613267 48.417784 44.081863 86.718419 93.222301 86.718419 49.140438 0 89.609033-38.300635 93.2223-86.718419h185.721948c54.199012 0 99.003529-44.081863 99.003529-99.003529-0.722653-18.066337-6.503881-36.855328-16.621031-52.753705z m-362.772053 195.839097c-25.292872 0-46.249824-18.788991-49.863091-43.35921h99.726182c-3.613267 24.570219-24.570219 43.35921-49.863091 43.35921z" p-id="4856" fill="#1296db"></path><path d="M755.1729 424.920254m-27.460832 0a27.460833 27.460833 0 1 0 54.921665 0 27.460833 27.460833 0 1 0-54.921665 0Z" p-id="4857" fill="#1296db"></path><path d="M732.770642 326.639379m-27.460833 0a27.460833 27.460833 0 1 0 54.921666 0 27.460833 27.460833 0 1 0-54.921666 0Z" p-id="4858" fill="#1296db"></path><path d="M681.462244 243.534227m-27.460833 0a27.460833 27.460833 0 1 0 54.921666 0 27.460833 27.460833 0 1 0-54.921666 0Z" p-id="4859" fill="#1296db"></path></svg>