<svg class="icon" viewBox="0 0 1024 1024" xmlns="http://www.w3.org/2000/svg" width="32" height="32"><path d="M276.992 190.054c0-9.83 8.192-17.817 18.227-17.817h185.447V127.18H295.219c-34.918 0-63.385 28.262-63.385 62.976v192.819h45.056V190.054zm359.936 18.33L348.672 646.042c-3.686 4.915-5.734 10.956-5.53 16.998l-20.07 147.251c.205 7.475 3.686 14.029 9.523 17.818 5.735 3.789 13.21 4.403 20.173 1.638l127.386-76.493c5.222-2.048 9.625-5.836 12.595-10.444.307-.41.512-.922.819-1.332l288.358-437.657 15.975-24.269 63.795-96.87c7.68-11.674 5.53-26.727-4.915-33.588L749.568 78.541c-10.445-6.861-25.088-2.97-32.768 8.806l-63.795 96.87-16.077 24.167zM369.152 772.71l20.173-99.84 63.385 41.78-83.558 58.06zm371.302-639.385l69.632 45.875-49.868 75.674-69.632-45.876 49.868-75.673zm-10.137 167.014L483.942 674.406l-69.632-45.875 246.477-374.067 69.53 45.875z"/><path d="M850.227 310.58v590.13c0 37.376-30.822 67.892-68.813 67.892h-538.93c-37.889 0-68.814-30.413-68.814-67.892V123.187c0-37.376 30.823-67.891 68.813-67.891H689.87V10.24H242.483c-62.771 0-113.869 50.688-113.869 112.947v777.626c0 62.259 51.098 112.947 113.87 112.947h538.93c62.772 0 113.87-50.688 113.87-112.947V310.579h-45.057z"/><path d="M777.83 631.706c0-12.493-10.137-22.528-22.528-22.528-12.492 0-22.528 10.137-22.528 22.528v249.139c0 12.493 10.138 22.528 22.528 22.528 12.493 0 22.528-10.138 22.528-22.528v-249.14zM520.294 903.373c12.493 0 22.528-10.138 22.528-22.528 0-12.493-10.137-22.528-22.528-22.528H271.155c-12.493 0-22.528 10.137-22.528 22.528 0 12.493 10.138 22.528 22.528 22.528h249.14z"/></svg>