<svg class="icon" viewBox="0 0 1024 1024" xmlns="http://www.w3.org/2000/svg" width="32" height="32"><path d="M212.7 852.5c0 14.7 13 26.6 29 26.6h560.7c16 0 29-11.9 29-26.6 0-14.7-13-26.6-29-26.6H241.7c-16 0-29 11.9-29 26.6zm128.8-406.6l141.9-130.1v430.3c0 14.7 13 26.6 29 26.6s29-11.9 29-26.6V315.9L683.3 446c11.3 10.4 29.7 10.4 41 0s11.3-27.2 0-37.6L532.9 232.9c-11.3-10.4-29.7-10.4-41 0L300.5 408.3c-11.3 10.4-11.3 27.2 0 37.6 11.3 10.4 29.7 10.4 41 0zM928 99.2H792.7v1.8c-11.2 3.7-19.3 13.3-19.3 24.8s8.1 21.1 19.3 24.8v1.8h96.7c42.7 0 77.3 31.7 77.3 70.9v673.5c0 39.2-34.6 70.9-77.3 70.9h-754c-42.7 0-77.3-31.7-77.3-70.9V223.3c0-39.2 34.6-70.9 77.3-70.9h96.7v-1.8c3.1 1 6.2 1.8 9.7 1.8 16 0 29-11.9 29-26.6s-13-26.6-29-26.6c-3.4 0-6.6.8-9.7 1.8v-1.8H96.7C43.3 99.2 0 138.9 0 187.8v744.4c0 48.9 43.3 88.6 96.7 88.6H928c53.4 0 96.7-39.7 96.7-88.6V187.9c0-49-43.3-88.7-96.7-88.7z"/></svg>